<svg width="95" height="96" viewBox="0 0 95 96" fill="none" xmlns="http://www.w3.org/2000/svg">
<path d="M63.339 11.2084C63.3399 11.8808 63.2935 12.5525 63.2002 13.2178L62.9865 14.3672L62.6759 16.0913C59.9951 27.3458 54.798 37.7694 47.5143 46.5C40.2252 37.771 35.023 27.3473 32.338 16.0913L32.0238 14.3864L31.8046 13.2044V13.1929C31.7139 12.5357 31.6687 11.8724 31.6694 11.2084C31.6694 5.01895 35.5676 0 40.3773 0C43.3238 0 45.9287 1.88306 47.5015 4.76417C49.0779 1.88306 51.6828 0 54.6384 0C59.4408 0 63.339 5.01895 63.339 11.2084Z" fill="white"/>
<path d="M62.2086 92.6944C61.7471 92.2497 61.3163 91.7699 60.9196 91.2587L60.2564 90.3212L59.2785 88.935C53.2671 79.3812 49.4672 68.4348 48.1929 57C58.9594 57.1671 69.534 60.0729 79.0424 65.4772L80.4238 66.3671L81.3768 66.9832C81.8894 67.3489 82.3761 67.7544 82.833 68.1964C87.1001 72.3095 88.0211 78.6551 84.8883 82.3802C82.9681 84.6621 79.9722 85.4228 76.9586 84.7249C77.9205 87.8568 77.5222 91.1218 75.602 93.4017C72.4763 97.1269 66.4757 96.8074 62.2086 92.6944Z" fill="white"/>
<path d="M34.1821 92.6944C34.6431 92.2492 35.0737 91.7694 35.4708 91.2587L36.1321 90.3212L37.1098 88.935C43.1213 79.382 46.9205 68.4352 48.1929 57C37.4289 57.1676 26.8567 60.0734 17.3502 65.4772L15.9709 66.3671L15.0181 66.9832H15.0092C14.4962 67.3488 14.009 67.7543 13.5516 68.1964C9.28539 72.3095 8.36461 78.6551 11.4985 82.3802C13.4183 84.6621 16.4117 85.4228 19.4247 84.7249C18.463 87.8568 18.863 91.1218 20.781 93.4017C23.9148 97.1269 29.9141 96.8074 34.1821 92.6944Z" fill="white"/>
<path d="M10.5878 56.6596L12.2094 56.8843L12.4346 56.9034C17.6102 57.275 22.8046 56.5723 27.7249 54.835C33.0192 52.9974 38.5051 51.8462 44.062 51.4067C38.5414 41.4682 30.864 33.0598 21.6636 26.8754L20.2383 26.0374L19.2545 25.4545H19.2455C18.6874 25.1576 18.1099 24.903 17.5176 24.6927C11.9914 22.75 6.29942 25.0336 4.8003 29.7913C3.88317 32.7073 4.75345 35.8746 6.83456 38.3373C3.77146 38.9906 1.28134 40.9771 0.364208 43.8911C-1.13491 48.6526 2.13 54.0827 7.65619 56.0254C8.25317 56.2342 8.86382 56.3965 9.48324 56.5111L10.5878 56.6596Z" fill="white"/>
<path d="M94.6568 43.8854C93.7685 40.9726 91.3549 38.987 88.3881 38.334C90.4055 35.8724 91.2467 32.7064 90.3584 29.7917C88.9082 25.0323 83.3934 22.7477 78.0426 24.6953C77.4688 24.9052 76.9094 25.1596 76.369 25.4568L75.4074 26.0508L74.0269 26.898C65.113 33.0752 57.6739 41.4769 52.3237 51.4091C57.7054 51.8485 63.0183 52.9992 68.1456 54.8359C72.9113 56.5725 77.9424 57.2749 82.9553 56.9034L83.1752 56.8844L84.7459 56.6598L85.8157 56.5056C86.4158 56.3892 87.0072 56.225 87.5853 56.0144C92.9448 54.0725 96.1071 48.6429 94.6568 43.8854Z" fill="white"/>
</svg>
