<svg width="214" height="96" viewBox="0 0 214 96" fill="none" xmlns="http://www.w3.org/2000/svg">
<path d="M63.339 11.2084C63.3399 11.8808 63.2935 12.5525 63.2002 13.2178L62.9865 14.3672L62.6759 16.0913C59.9951 27.3458 54.798 37.7694 47.5143 46.5C40.2252 37.771 35.023 27.3473 32.338 16.0913L32.0238 14.3864L31.8046 13.2044V13.1929C31.7139 12.5357 31.6687 11.8724 31.6694 11.2084C31.6694 5.01895 35.5676 0 40.3773 0C43.3238 0 45.9287 1.88306 47.5015 4.76417C49.0779 1.88306 51.6828 0 54.6384 0C59.4408 0 63.339 5.01895 63.339 11.2084Z" fill="white"/>
<path d="M62.2086 92.6944C61.7471 92.2497 61.3163 91.7699 60.9196 91.2587L60.2564 90.3212L59.2785 88.935C53.2671 79.3812 49.4672 68.4348 48.1929 57C58.9594 57.1671 69.534 60.0729 79.0424 65.4772L80.4238 66.3671L81.3768 66.9832C81.8894 67.3489 82.3761 67.7544 82.833 68.1964C87.1001 72.3095 88.0211 78.6551 84.8883 82.3802C82.9681 84.6621 79.9722 85.4228 76.9586 84.7249C77.9205 87.8568 77.5222 91.1218 75.602 93.4017C72.4763 97.1269 66.4757 96.8074 62.2086 92.6944Z" fill="white"/>
<path d="M34.1821 92.6944C34.6431 92.2492 35.0737 91.7694 35.4708 91.2587L36.1321 90.3212L37.1098 88.935C43.1213 79.382 46.9205 68.4352 48.1929 57C37.4289 57.1676 26.8567 60.0734 17.3502 65.4772L15.9709 66.3671L15.0181 66.9832H15.0092C14.4962 67.3488 14.009 67.7543 13.5516 68.1964C9.28539 72.3095 8.36461 78.6551 11.4985 82.3802C13.4183 84.6621 16.4117 85.4228 19.4247 84.7249C18.463 87.8568 18.863 91.1218 20.781 93.4017C23.9148 97.1269 29.9141 96.8074 34.1821 92.6944Z" fill="white"/>
<path d="M10.5878 56.6596L12.2094 56.8843L12.4346 56.9034C17.6102 57.275 22.8046 56.5723 27.7249 54.835C33.0192 52.9974 38.5051 51.8462 44.062 51.4067C38.5414 41.4682 30.864 33.0598 21.6636 26.8754L20.2383 26.0374L19.2545 25.4545H19.2455C18.6874 25.1576 18.1099 24.903 17.5176 24.6927C11.9914 22.75 6.29942 25.0336 4.8003 29.7913C3.88317 32.7073 4.75345 35.8746 6.83456 38.3373C3.77146 38.9906 1.28134 40.9771 0.364208 43.8911C-1.13491 48.6526 2.13 54.0827 7.65619 56.0254C8.25317 56.2342 8.86382 56.3965 9.48324 56.5111L10.5878 56.6596Z" fill="white"/>
<path d="M94.6568 43.8854C93.7685 40.9726 91.3549 38.987 88.3881 38.334C90.4055 35.8724 91.2467 32.7064 90.3584 29.7917C88.9082 25.0323 83.3934 22.7477 78.0426 24.6953C77.4688 24.9052 76.9094 25.1596 76.369 25.4568L75.4074 26.0508L74.0269 26.898C65.113 33.0752 57.6739 41.4769 52.3237 51.4091C57.7054 51.8485 63.0183 52.9992 68.1456 54.8359C72.9113 56.5725 77.9424 57.2749 82.9553 56.9034L83.1752 56.8844L84.7459 56.6598L85.8157 56.5056C86.4158 56.3892 87.0072 56.225 87.5853 56.0144C92.9448 54.0725 96.1071 48.6429 94.6568 43.8854Z" fill="white"/>
<path d="M122.909 18.3804V21.9633H130.206V25.1667H122.909V31.4502H119.261V17.651C119.261 16.7361 119.593 15.8586 120.184 15.2117C120.776 14.5647 121.578 14.2012 122.414 14.2012H131.174V17.4046H123.81C123.573 17.4046 123.345 17.5071 123.176 17.6898C123.008 17.8725 122.912 18.1207 122.909 18.3804Z" fill="white"/>
<path d="M133.651 14.1913H137.299V31.4403H133.651V14.1913Z" fill="white"/>
<path d="M156.103 14.1913L149.28 31.4403H145.677L138.876 14.1913H142.817L147.613 26.5121L152.478 14.1913H156.103Z" fill="white"/>
<path d="M169.615 28.237V31.4403H157.409V17.6411C157.409 16.7262 157.742 15.8487 158.333 15.2018C158.924 14.5548 159.726 14.1913 160.562 14.1913H169.322V17.3947H161.936C161.697 17.3947 161.468 17.4986 161.299 17.6834C161.13 17.8683 161.035 18.119 161.035 18.3804V21.1402H168.354V24.245H161.035V28.237H169.615Z" fill="white"/>
<path d="M119.261 39.486H122.911V52.4967C122.911 52.7581 123.006 53.0088 123.175 53.1937C123.344 53.3785 123.573 53.4824 123.812 53.4824H130.813V56.735H122.414C121.577 56.735 120.775 56.3716 120.184 55.7246C119.593 55.0776 119.261 54.2002 119.261 53.2852V39.486Z" fill="white"/>
<path d="M145.069 53.532V56.7354H132.863V42.9362C132.863 42.0212 133.195 41.1438 133.786 40.4968C134.377 39.8498 135.179 39.4864 136.016 39.4864H144.776V42.6898H137.389C137.15 42.6898 136.921 42.7936 136.752 42.9785C136.583 43.1633 136.488 43.414 136.488 43.6754V46.4353H143.807V49.5401H136.488V53.532H145.069Z" fill="white"/>
<path d="M158.355 53.0392H151.036L149.64 56.7354H145.902L152.928 39.4864H156.531L163.58 56.7354H159.751L158.355 53.0392ZM157.207 50.0083L154.707 43.4044L152.207 50.0083H157.207Z" fill="white"/>
<path d="M168.872 43.6754V47.2583H176.168V50.4617H168.872V56.7452H165.224V42.946C165.224 42.0311 165.556 41.1536 166.147 40.5066C166.738 39.8597 167.54 39.4962 168.376 39.4962H177.137V42.6996H169.773C169.535 42.6996 169.308 42.8021 169.139 42.9848C168.97 43.1675 168.874 43.4157 168.872 43.6754Z" fill="white"/>
<path d="M123.321 81.472C122.053 80.7401 120.994 79.6403 120.259 78.2932C119.528 76.8935 119.144 75.3095 119.144 73.6976C119.144 72.0857 119.528 70.5017 120.259 69.102C120.994 67.7549 122.053 66.6551 123.321 65.9232C124.671 65.146 126.177 64.752 127.702 64.7774C128.973 64.7572 130.234 65.0257 131.406 65.5659C132.483 66.0716 133.436 66.8483 134.187 67.8329L131.845 70.1985C131.366 69.5574 130.761 69.0427 130.074 68.6929C129.388 68.3431 128.639 68.167 127.882 68.1779C126.97 68.1602 126.07 68.4022 125.269 68.8802C124.514 69.3386 123.893 70.0222 123.479 70.8515C123.057 71.7335 122.836 72.7143 122.836 73.7099C122.836 74.7056 123.057 75.6864 123.479 76.5683C123.893 77.3976 124.514 78.0812 125.269 78.5396C126.07 79.0176 126.97 79.2596 127.882 79.2419C128.641 79.252 129.392 79.0731 130.079 78.7188C130.765 78.3645 131.369 77.844 131.845 77.1967L134.187 79.5623C133.439 80.5619 132.481 81.3482 131.395 81.8539C130.219 82.3929 128.954 82.6613 127.679 82.6424C126.16 82.6583 124.661 82.2558 123.321 81.472Z" fill="white"/>
<path d="M136.642 65.0757H140.29V78.0864C140.29 78.3478 140.385 78.5985 140.554 78.7833C140.723 78.9682 140.952 79.072 141.191 79.072H148.195V82.3247H139.795C138.958 82.3247 138.157 81.9612 137.565 81.3143C136.974 80.6673 136.642 79.7898 136.642 78.8749V65.0757Z" fill="white"/>
<path d="M153.183 81.4721C151.904 80.7357 150.837 79.6271 150.097 78.2687C149.367 76.8779 148.983 75.3018 148.983 73.6977C148.983 72.0936 149.367 70.5175 150.097 69.1267C150.84 67.7779 151.908 66.6784 153.183 65.948C154.552 65.1866 156.066 64.7897 157.602 64.7897C159.138 64.7897 160.652 65.1866 162.022 65.948C163.307 66.6983 164.383 67.8168 165.132 69.184C165.882 70.5512 166.278 72.1156 166.278 73.71C166.278 75.3044 165.882 76.8688 165.132 78.236C164.383 79.6032 163.307 80.7218 162.022 81.4721C160.652 82.2334 159.138 82.6303 157.602 82.6303C156.066 82.6303 154.552 82.2334 153.183 81.4721ZM160.13 78.5151C160.875 78.0507 161.488 77.368 161.898 76.5438C162.32 75.6618 162.541 74.681 162.541 73.6854C162.541 72.6897 162.32 71.7089 161.898 70.827C161.488 70.0027 160.875 69.32 160.13 68.8556C159.356 68.3948 158.489 68.1533 157.608 68.1533C156.727 68.1533 155.86 68.3948 155.086 68.8556C154.34 69.3194 153.727 70.0022 153.318 70.827C152.896 71.7089 152.675 72.6897 152.675 73.6854C152.675 74.681 152.896 75.6618 153.318 76.5438C153.727 77.3685 154.34 78.0514 155.086 78.5151C155.86 78.976 156.727 79.2174 157.608 79.2174C158.489 79.2174 159.356 78.976 160.13 78.5151Z" fill="white"/>
<path d="M183.621 65.0757L176.797 82.3247H173.194L166.393 65.0757H170.334L175.131 77.3964L179.995 65.0757H183.621Z" fill="white"/>
<path d="M197.133 79.1213V82.3247H184.927V68.5255C184.927 67.6105 185.259 66.7331 185.85 66.0861C186.441 65.4391 187.243 65.0757 188.08 65.0757H196.84V68.2791H189.453C189.214 68.2791 188.985 68.3829 188.816 68.5678C188.647 68.7526 188.552 69.0033 188.552 69.2647V72.0246H195.871V75.1294H188.552V79.1213H197.133Z" fill="white"/>
<path d="M210.079 82.3248L207.041 77.5296H203.686V82.3347H200.038V65.0857H206.861C208.109 65.0534 209.349 65.3138 210.498 65.8496C211.482 66.2972 212.317 67.0638 212.891 68.0462C213.464 69.0286 213.749 70.1797 213.707 71.3446C213.749 72.5081 213.459 73.6571 212.878 74.6327C212.298 75.6083 211.454 76.3623 210.464 76.7904L214 82.3347L210.079 82.3248ZM209.156 69.1047C208.584 68.5872 207.751 68.3285 206.656 68.3285H203.684V74.341H206.656C207.751 74.341 208.584 74.0782 209.156 73.5525C209.728 73.0268 210.013 72.2876 210.012 71.3348C210.012 70.3721 209.726 69.6287 209.156 69.1047Z" fill="white"/>
</svg>
