<svg width="196" height="128" viewBox="0 0 196 128" fill="none" xmlns="http://www.w3.org/2000/svg">
<g clip-path="url(#clip0_57_396)">
<path d="M115.374 11.7819C115.375 12.4888 115.324 13.1948 115.222 13.8942L114.988 15.1024L114.647 16.9147C111.705 28.7451 106.003 39.7021 98.0111 48.8795C90.0133 39.7038 84.3052 28.7467 81.3592 16.9147L81.0145 15.1226L80.7739 13.8801V13.868C80.6744 13.1772 80.6249 12.48 80.6256 11.7819C80.6256 5.27578 84.9028 0 90.1802 0C93.4131 0 96.2713 1.97942 97.997 5.00796C99.7267 1.97942 102.585 0 105.828 0C111.097 0 115.374 5.27578 115.374 11.7819Z" fill="white"/>
<path d="M113.799 96.2085C113.279 95.7376 112.793 95.2295 112.346 94.6882L111.598 93.6954L110.496 92.2275C103.719 82.1106 99.4356 70.5189 97.999 58.4102C110.136 58.5871 122.057 61.6642 132.776 67.387L134.333 68.3294L135.408 68.9818C135.985 69.369 136.534 69.7984 137.049 70.2666C141.859 74.6221 142.898 81.3417 139.366 85.2864C137.201 87.7028 133.824 88.5083 130.427 87.7692C131.511 91.0857 131.062 94.5432 128.898 96.9576C125.374 100.902 118.609 100.564 113.799 96.2085Z" fill="white"/>
<path d="M82.201 96.2085C82.7207 95.7371 83.2063 95.229 83.6541 94.6882L84.3997 93.6954L85.5021 92.2275C92.2804 82.1114 96.5642 70.5194 97.999 58.4102C85.8619 58.5877 73.9411 61.6647 63.2221 67.387L61.6667 68.3294L60.5924 68.9818H60.5824C60.0039 69.369 59.4546 69.7984 58.9389 70.2666C54.1285 74.6221 53.0903 81.3417 56.6239 85.2864C58.7885 87.7028 62.1638 88.5083 65.5611 87.7692C64.4768 91.0857 64.9278 94.5432 67.0904 96.9576C70.624 100.902 77.3886 100.564 82.201 96.2085Z" fill="white"/>
<path d="M56.165 58.7546L57.9688 58.9923L58.2194 59.0124C63.9766 59.4052 69.7548 58.6623 75.228 56.8256C81.1173 54.8828 87.2197 53.6657 93.4011 53.201C87.26 42.6934 78.7199 33.8036 68.4855 27.2651L66.9001 26.3791L65.8057 25.7629H65.7957C65.1748 25.449 64.5325 25.1798 63.8735 24.9575C57.7263 22.9035 51.3947 25.3179 49.7271 30.348C48.7069 33.4309 49.675 36.7796 51.99 39.3833C48.5826 40.074 45.8127 42.1742 44.7925 45.2551C43.1249 50.2892 46.7567 56.0302 52.9039 58.0841C53.568 58.3049 54.2473 58.4765 54.9363 58.5976L56.165 58.7546Z" fill="white"/>
<path d="M151.208 45.243C150.187 42.1621 147.415 40.0619 144.008 39.3712C146.325 36.7676 147.291 33.4188 146.271 30.3359C144.605 25.3018 138.272 22.8854 132.126 24.9454C131.467 25.1674 130.825 25.4365 130.204 25.7508L129.1 26.3791L127.515 27.2752C117.277 33.809 108.733 42.6955 102.589 53.201C108.77 53.6657 114.871 54.8828 120.76 56.8256C126.233 58.6624 132.011 59.4053 137.769 59.0124L138.021 58.9923L139.825 58.7547L141.054 58.5915C141.743 58.4685 142.422 58.2948 143.086 58.072C149.241 56.0181 152.873 50.2751 151.208 45.243Z" fill="white"/>
<path d="M3.24699 117.086V120.014H9.74097V122.632H3.24699V127.766H0V116.49C0 115.742 0.295636 115.025 0.821871 114.497C1.34811 113.968 2.06183 113.671 2.80604 113.671H10.6028V116.289H4.04872C3.83747 116.289 3.63475 116.372 3.48463 116.522C3.3345 116.671 3.2491 116.874 3.24699 117.086Z" fill="white"/>
<path d="M12.8076 113.663H16.0545V127.758H12.8076V113.663Z" fill="white"/>
<path d="M32.7906 113.663L26.7175 127.758H23.5106L17.4576 113.663H20.9651L25.2343 123.731L29.5636 113.663H32.7906Z" fill="white"/>
<path d="M44.8165 125.14V127.758H33.9531V116.482C33.9531 115.734 34.2488 115.017 34.775 114.488C35.3012 113.96 36.015 113.663 36.7592 113.663H44.556V116.28H37.9818C37.7692 116.28 37.5652 116.365 37.4149 116.516C37.2645 116.667 37.1801 116.872 37.1801 117.086V119.341H43.6941V121.878H37.1801V125.14H44.8165Z" fill="white"/>
<path d="M53.0723 113.663H56.3213V124.295C56.3213 124.508 56.4057 124.713 56.5561 124.864C56.7064 125.015 56.9104 125.1 57.123 125.1H63.3544V127.758H55.8783C55.1341 127.758 54.4204 127.461 53.8941 126.932C53.3679 126.404 53.0723 125.687 53.0723 124.939V113.663Z" fill="white"/>
<path d="M76.0417 125.14V127.758H65.1783V116.482C65.1783 115.734 65.474 115.017 66.0002 114.488C66.5264 113.96 67.2402 113.663 67.9844 113.663H75.7812V116.28H69.207C68.9944 116.28 68.7905 116.365 68.6401 116.516C68.4898 116.667 68.4053 116.872 68.4053 117.086V119.341H74.9193V121.878H68.4053V125.14H76.0417Z" fill="white"/>
<path d="M87.8672 124.738H81.3532L80.1105 127.758H76.7833L83.0368 113.663H86.2437L92.5172 127.758H89.1099L87.8672 124.738ZM86.845 122.261L84.6202 116.864L82.3954 122.261H86.845Z" fill="white"/>
<path d="M97.2273 117.086V120.014H103.721V122.632H97.2273V127.766H93.9803V116.49C93.9803 115.742 94.276 115.025 94.8022 114.497C95.3284 113.968 96.0422 113.671 96.7864 113.671H104.583V116.289H98.0291C97.8178 116.289 97.6151 116.372 97.465 116.522C97.3148 116.671 97.2294 116.874 97.2273 117.086Z" fill="white"/>
<path d="M115.296 127.061C114.167 126.463 113.224 125.565 112.57 124.464C111.92 123.32 111.578 122.026 111.578 120.708C111.578 119.391 111.92 118.097 112.57 116.953C113.224 115.852 114.167 114.953 115.296 114.355C116.497 113.72 117.838 113.398 119.195 113.419C120.326 113.402 121.449 113.622 122.492 114.063C123.45 114.476 124.299 115.111 124.967 115.916L122.883 117.849C122.456 117.325 121.917 116.904 121.306 116.619C120.696 116.333 120.029 116.189 119.355 116.198C118.544 116.183 117.742 116.381 117.03 116.772C116.358 117.146 115.805 117.705 115.437 118.383C115.061 119.103 114.864 119.905 114.864 120.718C114.864 121.532 115.061 122.334 115.437 123.054C115.805 123.732 116.358 124.291 117.03 124.665C117.742 125.056 118.544 125.254 119.355 125.239C120.031 125.247 120.699 125.101 121.31 124.812C121.921 124.522 122.459 124.097 122.883 123.568L124.967 125.501C124.301 126.318 123.449 126.96 122.482 127.374C121.435 127.814 120.309 128.033 119.175 128.018C117.822 128.031 116.489 127.702 115.296 127.061Z" fill="white"/>
<path d="M127.152 113.663H130.399V124.295C130.399 124.508 130.483 124.713 130.634 124.864C130.784 125.015 130.988 125.1 131.201 125.1H137.434V127.758H129.958C129.214 127.758 128.5 127.461 127.974 126.932C127.447 126.404 127.152 125.687 127.152 124.939V113.663Z" fill="white"/>
<path d="M141.873 127.062C140.736 126.46 139.785 125.554 139.128 124.444C138.477 123.307 138.135 122.019 138.135 120.709C138.135 119.398 138.477 118.11 139.128 116.973C139.789 115.871 140.739 114.973 141.873 114.376C143.092 113.753 144.44 113.429 145.807 113.429C147.174 113.429 148.522 113.753 149.74 114.376C150.885 114.989 151.842 115.903 152.509 117.02C153.176 118.137 153.529 119.416 153.529 120.719C153.529 122.022 153.176 123.3 152.509 124.417C151.842 125.535 150.885 126.449 149.74 127.062C148.522 127.684 147.174 128.008 145.807 128.008C144.44 128.008 143.092 127.684 141.873 127.062ZM148.057 124.645C148.72 124.266 149.265 123.708 149.63 123.034C150.006 122.314 150.202 121.512 150.202 120.699C150.202 119.885 150.006 119.083 149.63 118.363C149.265 117.689 148.72 117.131 148.057 116.752C147.368 116.375 146.596 116.178 145.812 116.178C145.028 116.178 144.256 116.375 143.567 116.752C142.903 117.131 142.358 117.689 141.994 118.363C141.618 119.083 141.422 119.885 141.422 120.699C141.422 121.512 141.618 122.314 141.994 123.034C142.358 123.708 142.903 124.266 143.567 124.645C144.256 125.022 145.028 125.219 145.812 125.219C146.596 125.219 147.368 125.022 148.057 124.645Z" fill="white"/>
<path d="M168.964 113.663L162.891 127.758H159.684L153.631 113.663H157.138L161.407 123.731L165.737 113.663H168.964Z" fill="white"/>
<path d="M180.99 125.14V127.758H170.126V116.482C170.126 115.734 170.422 115.017 170.948 114.488C171.474 113.96 172.188 113.663 172.932 113.663H180.729V116.28H174.155C173.942 116.28 173.738 116.365 173.588 116.516C173.438 116.667 173.353 116.872 173.353 117.086V119.341H179.867V121.878H173.353V125.14H180.99Z" fill="white"/>
<path d="M192.512 127.758L189.809 123.84H186.822V127.766H183.575V113.671H189.648C190.759 113.644 191.863 113.857 192.885 114.295C193.761 114.661 194.504 115.287 195.015 116.09C195.525 116.893 195.779 117.833 195.741 118.785C195.779 119.736 195.521 120.675 195.004 121.472C194.487 122.27 193.736 122.886 192.855 123.236L196.002 127.766L192.512 127.758ZM191.691 116.955C191.182 116.532 190.44 116.321 189.466 116.321H186.82V121.234H189.466C190.44 121.234 191.182 121.019 191.691 120.59C192.2 120.16 192.454 119.556 192.452 118.777C192.452 117.991 192.198 117.383 191.691 116.955Z" fill="white"/>
</g>
<defs>
<clipPath id="clip0_57_396">
<rect width="196" height="128" fill="white"/>
</clipPath>
</defs>
</svg>
