<svg width="32" height="32" viewBox="0 0 32 32" fill="none" xmlns="http://www.w3.org/2000/svg">
<g clip-path="url(#clip0_109_67)">
<path d="M21.3351 3.73613C21.3354 3.96027 21.3198 4.18417 21.2884 4.40593L21.2164 4.78907L21.1118 5.36377C20.2088 9.11527 18.4582 12.5898 16.0047 15.5C13.5494 12.5903 11.7971 9.11577 10.8927 5.36377L10.7869 4.79547L10.713 4.40147V4.39763C10.6825 4.17857 10.6672 3.95747 10.6675 3.73613C10.6675 1.67298 11.9806 0 13.6007 0C14.5932 0 15.4706 0.627687 16.0004 1.58806C16.5314 0.627687 17.4088 0 18.4044 0C20.0221 0 21.3351 1.67298 21.3351 3.73613Z" fill="white"/>
<path d="M20.9545 30.8981C20.799 30.7499 20.6539 30.59 20.5203 30.4196L20.2969 30.1071L19.9675 29.645C17.9426 26.4604 16.6626 22.8116 16.2334 19C19.86 19.0557 23.422 20.0243 26.6248 21.8257L27.0901 22.1224L27.4111 22.3277C27.5838 22.4496 27.7477 22.5848 27.9016 22.7321C29.339 24.1032 29.6492 26.2184 28.594 27.4601C27.9471 28.2207 26.938 28.4743 25.9229 28.2416C26.2469 29.2856 26.1127 30.3739 25.4659 31.1339C24.4131 32.3756 22.3918 32.2691 20.9545 30.8981Z" fill="white"/>
<path d="M11.5141 30.8981C11.6694 30.7497 11.8144 30.5898 11.9482 30.4196L12.1709 30.1071L12.5003 29.645C14.5252 26.4607 15.8049 22.8117 16.2335 19C12.6077 19.0559 9.04658 20.0245 5.84439 21.8257L5.37978 22.1224L5.05884 22.3277H5.05584C4.88304 22.4496 4.71893 22.5848 4.56486 22.7321C3.12782 24.1032 2.81767 26.2184 3.87329 27.4601C4.51996 28.2207 5.52826 28.4743 6.54317 28.2416C6.21923 29.2856 6.35397 30.3739 7.00003 31.1339C8.05562 32.3756 10.0764 32.2691 11.5141 30.8981Z" fill="white"/>
<path d="M3.56642 18.8865L4.11264 18.9614L4.1885 18.9678C5.93186 19.0917 7.68155 18.8574 9.33891 18.2783C11.1223 17.6658 12.9701 17.2821 14.8419 17.1356C12.9824 13.8227 10.3963 11.0199 7.29721 8.95847L6.81711 8.67914L6.48573 8.48484H6.4827C6.2947 8.38587 6.10018 8.301 5.90067 8.2309C4.03921 7.58334 2.12191 8.34454 1.61694 9.93044C1.30802 10.9024 1.60116 11.9582 2.30217 12.7791C1.27039 12.9969 0.431609 13.659 0.122681 14.6304C-0.382285 16.2175 0.717474 18.0276 2.57893 18.6751C2.78002 18.7447 2.98571 18.7988 3.19435 18.837L3.56642 18.8865Z" fill="white"/>
<path d="M31.8843 14.6285C31.5851 13.6575 30.7721 12.9957 29.7728 12.778C30.4523 11.9575 30.7357 10.9021 30.4364 9.93057C29.948 8.3441 28.0903 7.58257 26.288 8.23177C26.0947 8.30173 25.9063 8.38653 25.7242 8.4856L25.4003 8.6836L24.9353 8.966C21.9327 11.0251 19.4269 13.8256 17.6248 17.1364C19.4375 17.2828 21.2271 17.6664 22.9542 18.2786C24.5595 18.8575 26.2542 19.0916 27.9428 18.9678L28.0168 18.9615L28.5459 18.8866L28.9063 18.8352C29.1084 18.7964 29.3076 18.7417 29.5023 18.6715C31.3077 18.0242 32.3728 16.2143 31.8843 14.6285Z" fill="white"/>
</g>
<defs>
<clipPath id="clip0_109_67">
<rect width="32" height="32" fill="white"/>
</clipPath>
</defs>
</svg>
